# xmcd
#
# Track frame offsets:
# 150
# 21822
# 37069
# 53953
# 72525
# 91932
# 108367
# 126574
# 141571
# 161490
# 181032
# 198484
# 217154
# 230093
# 253723
# 271392
# 295287
#
# Disc length: 4276 seconds
#
#
# Revision: 1
# Processed by: cddbd v1.5.2PL0 Copyright (c) Steve Scherf et al.
# Submitted via: FreeRIP 2.951 
#
DISCID=1210b211
DTITLE=George Benson - The Very Best of (Radio City)
DYEAR=1900
DGENRE=Jazz
TTITLE0=George Benson - Love X Love
TTITLE1=George Benson - In Your Eyes
TTITLE2=George Benson - Give Me The Night
TTITLE3=George Benson - Never Give Up On  A Good Thing
TTITLE4=George Benson - Love Ballad
TTITLE5=George Benson - Shiver
TTITLE6=George Benson - Lady Love Me (One More Night)
TTITLE7=George Benson - This Masquerade
TTITLE8=George Benson - Feel Like Making Love
TTITLE9=George Benson - Nature Boy
TTITLE10=George Benson - Turn Your Love Around
TTITLE11=George Benson - 20/20
TTITLE12=George Benson - You Are The Love of My Love
TTITLE13=George Benson - Inside Love (So Personal)
TTITLE14=George Benson - Being With You
TTITLE15=George Benson - On Broadway
TTITLE16=Breezin'
EXTD=
EXTT0=
EXTT1=
EXTT2=
EXTT3=
EXTT4=
EXTT5=
EXTT6=
EXTT7=
EXTT8=
EXTT9=
EXTT10=
EXTT11=
EXTT12=
EXTT13=
EXTT14=
EXTT15=
EXTT16=
PLAYORDER=
